#!OML:ASF I:\Actors\actors\Patient Classification 2\Patient 1\Session 1\actor1.ASF
:FULLY-SPECIFIED
:DEGREES
288
root -0.855412 18.588 5.10651 1.72512 -1.41443 -4.32002
lowerback 17.7668 1.29737 -0.660384
upperback -0.552724 1.58833 0.0710991
thorax -10.6327 0.788799 0.0314981
lowerneck -8.09366 -3.30689 1.54563
upperneck -12.7913 -4.34213 2.08639
head -2.6855 -2.27732 0.403761
rclavicle -2.93207e-014 1.51076e-014
rhumerus 25.5896 -7.11592 -30.8963
rradius 134.642
rwrist -25.5164
rhand -13.8737 -37.0357
rfingers 7.12502
rthumb 12.2509 -66.6569
lclavicle -2.93207e-014 1.51076e-014
lhumerus -47.2904 -3.61413 82.4024
lradius 57.551
lwrist 4.04451
lhand -11.9932 -26.7227
lfingers 7.12502
lthumb 14.0635 2.78145
rfemur 0 0 0
rtibia 0
rfoot 0 0
rtoes 0
lfemur -12.022 -0.557896 -8.65606
ltibia 29.6026
lfoot -20.7938 8.55006
ltoes -57.1715
289
root -0.858227 18.5872 5.12629 1.66855 -1.3453 -4.32852
lowerback 18.0288 1.3012 -0.397453
upperback -0.868475 1.62724 -0.119818
thorax -11.1231 0.784322 -0.348532
lowerneck -8.31761 -3.44606 1.5463
upperneck -12.5982 -4.52788 2.15763
head -2.57957 -2.36723 0.417999
rclavicle -6.95746e-016 4.77083e-015
rhumerus 25.2936 -7.28119 -30.8913
rradius 134.668
rwrist -25.4171
rhand -13.9447 -37.0513
rfingers 7.12502
rthumb 12.1824 -66.6765
lclavicle -6.95746e-016 4.77083e-015
lhumerus -47.6739 -3.88263 82.2441
lradius 57.4449
lwrist 3.99631
lhand -11.9303 -26.8136
lfingers 7.12502
lthumb 14.1242 2.6863
rfemur 0 0 0
rtibia 0
rfoot 0 0
rtoes 0
lfemur -11.9436 -0.526974 -8.6394
ltibia 29.6722
lfoot -20.7945 8.44023
ltoes -57.2511
290
root -0.852658 18.5867 5.14396 1.6361 -1.40668 -4.35703
lowerback 18.0506 1.3258 -0.209409
upperback -1.05651 1.68774 -0.236906
thorax -11.3379 0.796274 -0.604441
lowerneck -8.80098 -3.6166 1.88766
upperneck -12.2667 -4.81945 1.80859
head -2.40423 -2.51381 0.234944
rclavicle 1.19271e-014 -1.03368e-014
rhumerus 25.3444 -7.38315 -30.9437
rradius 134.578
rwrist -25.1514
rhand -14.0222 -37.1002
rfingers 7.12502
rthumb 12.1077 -66.7299
lclavicle 1.19271e-014 -1.03368e-014
lhumerus -47.7852 -3.92183 82.132
lradius 57.2826
lwrist 4.01939
lhand -11.7695 -26.883
lfingers 7.12502
lthumb 14.2791 2.60603
rfemur 0 0 0
rtibia 0
rfoot 0 0
rtoes 0
lfemur -11.8626 -0.54468 -8.64571
ltibia 29.7334
lfoot -20.9077 8.47915
ltoes -57.2577
291
root -0.830313 18.5846 5.15239 1.763 -1.78093 -4.40768
lowerback 17.9052 1.41181 0.0642232
upperback -1.20121 1.85239 -0.323695
thorax -11.4044 0.853396 -0.899177
lowerneck -9.1511 -3.67588 1.94049
upperneck -12.2726 -4.91587 1.72094
head -2.35171 -2.56066 0.190901
rclavicle -2.62396e-014 5.56597e-015
rhumerus 25.5812 -7.63058 -30.9561
rradius 134.491
rwrist -24.9914
rhand -14.1398 -36.9227
rfingers 7.12502
rthumb 11.9943 -66.559
lclavicle -2.62396e-014 5.56597e-015
lhumerus -47.7582 -3.80944 82.0654
lradius 57.2077
lwrist 4.15369
lhand -11.6172 -26.8113
lfingers 7.12502
lthumb 14.4259 2.66736
rfemur 0 0 0
rtibia 0
rfoot 0 0
rtoes 0
lfemur -11.8891 -0.632474 -8.72703
ltibia 29.7475
lfoot -21.1167 8.92866
ltoes -57.2162
292
root -0.832752 18.5837 5.17753 1.76952 -1.81473 -4.45142
lowerback 17.6528 1.44332 0.0444142
upperback -1.25668 1.8915 -0.318077
thorax -11.3218 0.874359 -0.886041
lowerneck -8.09116 -3.42996 1.29093
upperneck -13.6916 -4.43411 2.51167
head -2.97842 -2.32748 0.598086
rclavicle 1.27222e-014 -2.38542e-014
rhumerus 25.8085 -8.02855 -30.9178
rradius 134.477
rwrist -24.8619
rhand -14.0658 -36.9668
rfingers 7.12502
rthumb 12.0657 -66.599
lclavicle 1.27222e-014 -2.38542e-014
lhumerus -47.7709 -3.67639 82.0006
lradius 57.1979
lwrist 4.2206
lhand -11.51 -26.7934
lfingers 7.12502
lthumb 14.5292 2.67782
rfemur 0 0 0
rtibia 0
rfoot 0 0
rtoes 0
lfemur -11.786 -0.705174 -8.69085
ltibia 29.7564
lfoot -21.2364 9.01741
ltoes -57.2471
293
root -0.850002 18.5831 5.21427 1.52489 -1.53539 -4.4688
lowerback 17.5641 1.40119 -0.116791
upperback -1.26411 1.80393 -0.296892
thorax -11.2859 0.844294 -0.745256
lowerneck -8.4996 -3.49101 1.49886
upperneck -13.6309 -4.55757 2.26185
head -2.89791 -2.38914 0.47359
rclavicle 3.18055e-015 -8.74653e-015
rhumerus 25.9749 -8.408 -30.8626
rradius 134.467
rwrist -24.6173
rhand -13.9483 -37.1626
rfingers 7.12502
rthumb 12.1789 -66.7881
lclavicle 3.18055e-015 -8.74653e-015
lhumerus -47.9524 -3.62672 81.8772
lradius 57.2889
lwrist 4.18756
lhand -11.4156 -26.8496
lfingers 7.12502
lthumb 14.6201 2.61508
rfemur 0 0 0
rtibia 0
rfoot 0 0
rtoes 0
lfemur -11.421 -0.855009 -8.59707
ltibia 29.7276
lfoot -21.2964 8.82075
ltoes -57.2315
294
root -0.835675 18.5821 5.23013 1.5813 -1.75115 -4.45609
lowerback 17.4344 1.46173 0.066684
upperback -1.41309 1.91196 -0.406601
thorax -11.3677 0.879174 -0.998154
lowerneck -8.80862 -3.55459 1.64965
upperneck -13.7138 -4.66933 2.10379
head -2.88139 -2.44669 0.392865
rclavicle -3.67752e-015 1.11319e-014
rhumerus 26.1035 -8.73117 -30.8023
rradius 134.41
rwrist -24.3301
rhand -14.3724 -36.8309
rfingers 7.12502
rthumb 11.77 -66.4802
lclavicle -3.67752e-015 1.11319e-014
lhumerus -48.2782 -3.75187 81.753
lradius 57.5594
lwrist 4.24314
lhand -11.3862 -26.8822
lfingers 7.12502
lthumb 14.6484 2.58035
rfemur 0 0 0
rtibia 0
rfoot 0 0
rtoes 0
lfemur -11.343 -1.04883 -8.70481
ltibia 29.6652
lfoot -21.4677 9.16522
ltoes -57.0695
295
root -0.838156 18.582 5.25551 1.53687 -1.74719 -4.49459
lowerback 17.2731 1.469 0.0889436
upperback -1.5081 1.92418 -0.43275
thorax -11.3796 0.882654 -1.03987
lowerneck -9.02681 -3.57583 1.70818
upperneck -13.9167 -4.70966 2.01168
head -2.91823 -2.46762 0.352618
rclavicle -5.06901e-015 0
rhumerus 26.2633 -9.0736 -30.7641
rradius 134.325
rwrist -24.0868
rhand -15.1036 -36.2759
rfingers 7.12502
rthumb 11.0648 -65.9642
lclavicle -5.06901e-015 0
lhumerus -48.5411 -3.83833 81.6453
lradius 57.7571
lwrist 4.27915
lhand -11.4117 -26.8958
lfingers 7.12502
lthumb 14.6238 2.56857
rfemur 0 0 0
rtibia 0
rfoot 0 0
rtoes 0
lfemur -11.1286 -1.13955 -8.6645
ltibia 29.5358
lfoot -21.5314 9.20281
ltoes -57.0218
296
root -0.842325 18.5815 5.28108 1.4521 -1.76433 -4.55346
lowerback 17.1746 1.48728 0.101909
upperback -1.60576 1.94982 -0.45091
thorax -11.4312 0.892801 -1.07312
lowerneck -9.14811 -3.57748 1.72402
upperneck -14.2231 -4.70995 2.00283
head -3.00454 -2.46991 0.35002
rclavicle 6.65929e-015 -1.59028e-014
rhumerus 26.4529 -9.52244 -30.7078
rradius 134.255
rwrist -24.0167
rhand -15.4533 -36.0914
rfingers 7.12502
rthumb 10.7275 -65.7975
lclavicle 6.65929e-015 -1.59028e-014
lhumerus -48.7188 -3.88627 81.5219
lradius 57.823
lwrist 4.30491
lhand -11.4403 -26.8466
lfingers 7.12502
lthumb 14.5963 2.61981
rfemur 0 0 0
rtibia 0
rfoot 0 0
rtoes 0
lfemur -10.8763 -1.16969 -8.59575
ltibia 29.4255
lfoot -21.5776 9.24137
ltoes -57.0568
297
root -0.870571 18.5826 5.32377 1.26694 -1.35105 -4.53687
lowerback 16.9219 1.41557 -0.22897
upperback -1.61995 1.79096 -0.410014
thorax -11.3149 0.841811 -0.791179
lowerneck -9.27173 -3.5629 1.74467
upperneck -14.5952 -4.68403 2.03228
head -3.11306 -2.46091 0.360105
rclavicle -3.61788e-014 3.18055e-015
rhumerus 26.6868 -10.0017 -30.6492
rradius 134.249
rwrist -24.0653
rhand -15.5446 -36.1881
rfingers 7.12502
rthumb 10.6395 -65.8988
lclavicle -3.61788e-014 3.18055e-015
lhumerus -48.8976 -3.94628 81.3904
lradius 57.9198
lwrist 4.3313
lhand -11.4911 -26.6978
lfingers 7.12502
lthumb 14.5474 2.77211
rfemur 0 0 0
rtibia 0
rfoot 0 0
rtoes 0
lfemur -10.5221 -1.25146 -8.48149
ltibia 29.2678
lfoot -21.533 8.9016
ltoes -57.1333
298
root -0.880309 18.5821 5.35648 1.13616 -1.16711 -4.53289
lowerback 16.7311 1.37595 -0.333912
upperback -1.67789 1.71739 -0.414231
thorax -11.273 0.814181 -0.712784
lowerneck -9.48893 -3.55584 1.69871
upperneck -14.8425 -4.66617 2.07584
head -3.1601 -2.45131 0.381586
rclavicle 8.34896e-015 -1.59028e-015
rhumerus 26.9346 -10.4372 -30.6086
rradius 134.254
rwrist -23.9904
rhand -15.6487 -36.1139
rfingers 7.12502
rthumb 10.539 -65.8297
lclavicle 8.34896e-015 -1.59028e-015
lhumerus -49.0798 -3.92244 81.2252
lradius 57.9944
lwrist 4.23896
lhand -11.5155 -26.7245
lfingers 7.12502
lthumb 14.5239 2.74715
rfemur 0 0 0
rtibia 0
rfoot 0 0
rtoes 0
lfemur -10.2196 -1.36469 -8.44959
ltibia 29.1113
lfoot -21.5679 8.78802
ltoes -57.1203
299
root -0.880963 18.5804 5.38335 1.03294 -1.12148 -4.58672
lowerback 16.5971 1.36348 -0.272347
upperback -1.77744 1.7132 -0.425397
thorax -11.3049 0.807988 -0.757132
lowerneck -9.69095 -3.57152 1.65958
upperneck -15.0614 -4.68359 2.07375
head -3.20145 -2.45809 0.387049
rclavicle -1.49585e-014 6.36111e-015
rhumerus 27.1834 -10.8598 -30.5307
rradius 134.217
rwrist -23.7514
rhand -15.7817 -36.0802
rfingers 7.12502
rthumb 10.4108 -65.8024
lclavicle -1.49585e-014 6.36111e-015
lhumerus -49.277 -3.89697 81.055
lradius 58.0133
lwrist 4.17528
lhand -11.5657 -26.878
lfingers 7.12502
lthumb 14.4754 2.59712
rfemur 0 0 0
rtibia 0
rfoot 0 0
rtoes 0
lfemur -9.93724 -1.45066 -8.40152
ltibia 28.9454
lfoot -21.5986 8.84663
ltoes -57.1418
300
root -0.88284 18.5799 5.41103 0.916169 -1.09795 -4.5794
lowerback 16.469 1.36169 -0.314972
upperback -1.87611 1.70045 -0.448556
thorax -11.3421 0.803768 -0.753476
lowerneck -9.85038 -3.55376 1.7753
upperneck -15.3695 -4.67608 1.95798
head -3.28948 -2.45867 0.332593
rclavicle -1.56543e-014 -6.36111e-015
rhumerus 27.4582 -11.3248 -30.4861
rradius 134.215
rwrist -23.5949
rhand -15.9622 -36.2036
rfingers 7.12502
rthumb 10.2367 -65.9345
lclavicle -1.56543e-014 -6.36111e-015
lhumerus -49.4769 -3.8618 80.8606
lradius 58.0019
lwrist 4.19723
lhand -11.648 -26.8932
lfingers 7.12502
lthumb 14.3962 2.5876
rfemur 0 0 0
rtibia 0
rfoot 0 0
rtoes 0
lfemur -9.65335 -1.56212 -8.42559
ltibia 28.8158
lfoot -21.659 8.94953
ltoes -57.1837
